<svg xmlns="http://www.w3.org/2000/svg" viewBox="0 0 600 700">
  <defs><linearGradient id="bg" y2="1"><stop stop-color="#e9ddc5"/><stop offset="1" stop-color="#b79b72"/></linearGradient><linearGradient id="soap" x2="1" y2="1"><stop stop-color="#f6e8c5"/><stop offset="1" stop-color="#c9a66b"/></linearGradient></defs>
  <rect width="600" height="700" fill="url(#bg)"/><circle cx="112" cy="130" r="52" fill="none" stroke="#fff" stroke-width="8" opacity=".45"/><circle cx="185" cy="85" r="24" fill="none" stroke="#fff" stroke-width="6" opacity=".4"/><circle cx="485" cy="200" r="78" fill="#fff" opacity=".1"/>
  <ellipse cx="300" cy="584" rx="205" ry="35" fill="#594a35" opacity=".18"/><g transform="rotate(-7 300 410)"><rect x="122" y="290" width="360" height="247" rx="72" fill="url(#soap)" stroke="#fff" stroke-opacity=".56" stroke-width="9"/><path d="M211 411c45-69 105-83 179-44-48 6-82 34-103 83-18-20-43-33-76-39z" fill="#728159" opacity=".8"/><path d="M299 438c21-65 57-109 108-132" fill="none" stroke="#576746" stroke-width="10" stroke-linecap="round"/></g>
  <path d="M92 630c25-77 65-130 121-158M100 590c-36-29-51-63-44-102 42 1 71 22 87 64" fill="none" stroke="#60704d" stroke-width="15" stroke-linecap="round"/>
</svg>
